<svg width="444" height="444" viewBox="0 0 444 444" fill="none" xmlns="http://www.w3.org/2000/svg">
<rect width="444" height="444" fill="black"/>
<path d="M24.0828 0C10.7802 0 0 10.7744 0 24.0698C0 37.3651 10.7802 48.1395 24.0828 48.1395C37.3854 48.1395 48.1656 37.3651 48.1656 24.0698C48.1656 10.7744 37.3854 0 24.0828 0Z" fill="white"/>
<path d="M103.228 0C89.9251 0 79.1449 10.7744 79.1449 24.0698C79.1449 37.3651 89.9251 48.1395 103.228 48.1395C116.53 48.1395 127.31 37.3651 127.31 24.0698C127.31 10.7744 116.53 0 103.228 0Z" fill="white"/>
<path d="M182.362 33.3035C187.465 33.3035 191.601 29.1694 191.601 24.0698C191.601 18.9701 187.465 14.8361 182.362 14.8361C177.26 14.8361 173.124 18.9701 173.124 24.0698C173.124 29.1694 177.26 33.3035 182.362 33.3035Z" fill="white"/>
<path d="M24.0828 118.138C32.2478 118.138 38.8668 111.522 38.8668 103.362C38.8668 95.2014 32.2478 88.5859 24.0828 88.5859C15.9178 88.5859 9.29883 95.2014 9.29883 103.362C9.29883 111.522 15.9178 118.138 24.0828 118.138Z" fill="white"/>
<path d="M103.228 79.2922C89.9251 79.2922 79.1449 90.0665 79.1449 103.362C79.1449 116.657 89.9251 127.432 103.228 127.432C116.53 127.432 127.31 116.657 127.31 103.362C127.31 90.0665 116.53 79.2922 103.228 79.2922Z" fill="white"/>
<path d="M182.363 118.138C190.52 118.138 197.147 111.525 197.147 103.362C197.147 95.1986 190.53 88.5859 182.363 88.5859C174.195 88.5859 167.579 95.1986 167.579 103.362C167.579 111.525 174.195 118.138 182.363 118.138Z" fill="white"/>
<path d="M24.0828 173.21C18.9779 173.21 14.8441 177.342 14.8441 182.444C14.8441 187.546 18.9779 191.678 24.0828 191.678C29.1876 191.678 33.3215 187.546 33.3215 182.444C33.3215 177.342 29.1876 173.21 24.0828 173.21Z" fill="white"/>
<path d="M103.228 158.374C89.9251 158.374 79.1449 169.149 79.1449 182.444C79.1449 195.739 89.9251 206.514 103.228 206.514C116.53 206.514 127.31 195.739 127.31 182.444C127.31 169.149 116.53 158.374 103.228 158.374Z" fill="white"/>
<path d="M182.363 158.374C169.06 158.374 158.28 169.149 158.28 182.444C158.28 195.739 169.06 206.514 182.363 206.514C195.665 206.514 206.445 195.739 206.445 182.444C206.445 169.149 195.665 158.374 182.363 158.374Z" fill="white"/>
<path d="M261.638 33.3035C266.742 33.3035 270.876 29.1719 270.876 24.0698C270.876 18.9677 266.742 14.8361 261.638 14.8361C256.533 14.8361 252.399 18.9677 252.399 24.0698C252.399 29.1719 256.533 33.3035 261.638 33.3035Z" fill="white"/>
<path d="M340.772 48.1395C354.073 48.1395 364.855 37.3631 364.855 24.0698C364.855 10.7764 354.073 0 340.772 0C327.472 0 316.69 10.7764 316.69 24.0698C316.69 37.3631 327.472 48.1395 340.772 48.1395Z" fill="white"/>
<path d="M419.917 0C406.615 0 395.834 10.7744 395.834 24.0698C395.834 37.3651 406.615 48.1395 419.917 48.1395C433.22 48.1395 444 37.3651 444 24.0698C444 10.7744 433.22 0 419.917 0Z" fill="white"/>
<path d="M261.637 118.138C269.795 118.138 276.421 111.525 276.421 103.362C276.421 95.1986 269.805 88.5859 261.637 88.5859C253.47 88.5859 246.854 95.1986 246.854 103.362C246.854 111.525 253.47 118.138 261.637 118.138Z" fill="white"/>
<path d="M340.772 79.2922C327.47 79.2922 316.69 90.0665 316.69 103.362C316.69 116.657 327.47 127.432 340.772 127.432C354.075 127.432 364.855 116.657 364.855 103.362C364.855 90.0665 354.075 79.2922 340.772 79.2922Z" fill="white"/>
<path d="M419.917 88.5859C411.759 88.5859 405.133 95.1986 405.133 103.362C405.133 111.525 411.749 118.138 419.917 118.138C428.085 118.138 434.701 111.525 434.701 103.362C434.701 95.1986 428.085 88.5859 419.917 88.5859Z" fill="white"/>
<path d="M340.772 158.374C327.47 158.374 316.69 169.149 316.69 182.444C316.69 195.739 327.47 206.514 340.772 206.514C354.075 206.514 364.855 195.739 364.855 182.444C364.855 169.149 354.075 158.374 340.772 158.374Z" fill="white"/>
<path d="M419.917 191.678C425.02 191.678 429.156 187.544 429.156 182.444C429.156 177.344 425.02 173.21 419.917 173.21C414.815 173.21 410.679 177.344 410.679 182.444C410.679 187.544 414.815 191.678 419.917 191.678Z" fill="white"/>
<path d="M261.637 158.374C248.335 158.374 237.555 169.149 237.555 182.444C237.555 195.739 248.335 206.514 261.637 206.514C274.94 206.514 285.72 195.739 285.72 182.444C285.72 169.149 274.94 158.374 261.637 158.374Z" fill="white"/>
<path d="M24.0828 252.312C18.9779 252.312 14.8441 256.444 14.8441 261.546C14.8441 266.648 18.9779 270.78 24.0828 270.78C29.1876 270.78 33.3215 266.648 33.3215 261.546C33.3215 256.444 29.1876 252.312 24.0828 252.312Z" fill="white"/>
<path d="M103.228 246.77C95.0699 246.77 88.4437 253.383 88.4437 261.546C88.4437 269.709 95.0599 276.322 103.228 276.322C111.395 276.322 118.012 269.709 118.012 261.546C118.012 253.383 111.395 246.77 103.228 246.77Z" fill="white"/>
<path d="M182.363 237.476C169.06 237.476 158.28 248.251 158.28 261.546C158.28 274.842 169.06 285.616 182.363 285.616C195.665 285.616 206.445 274.842 206.445 261.546C206.445 248.251 195.665 237.476 182.363 237.476Z" fill="white"/>
<path d="M24.0828 331.404C18.9779 331.404 14.8441 335.536 14.8441 340.638C14.8441 345.74 18.9779 349.872 24.0828 349.872C29.1876 349.872 33.3215 345.74 33.3215 340.638C33.3215 335.536 29.1876 331.404 24.0828 331.404Z" fill="white"/>
<path d="M103.228 331.404C98.1229 331.404 93.989 335.536 93.989 340.638C93.989 345.74 98.1229 349.872 103.228 349.872C108.333 349.872 112.466 345.74 112.466 340.638C112.466 335.536 108.333 331.404 103.228 331.404Z" fill="white"/>
<path d="M182.363 316.568C169.06 316.568 158.28 327.343 158.28 340.638C158.28 353.934 169.06 364.708 182.363 364.708C195.665 364.708 206.445 353.934 206.445 340.638C206.445 327.343 195.665 316.568 182.363 316.568Z" fill="white"/>
<path d="M24.0828 410.697C18.9779 410.697 14.8441 414.828 14.8441 419.93C14.8441 425.032 18.9779 429.164 24.0828 429.164C29.1876 429.164 33.3215 425.032 33.3215 419.93C33.3215 414.828 29.1876 410.697 24.0828 410.697Z" fill="white"/>
<path d="M103.228 429.164C108.33 429.164 112.466 425.03 112.466 419.93C112.466 414.831 108.33 410.697 103.228 410.697C98.1253 410.697 93.989 414.831 93.989 419.93C93.989 425.03 98.1253 429.164 103.228 429.164Z" fill="white"/>
<path d="M182.363 395.86C169.06 395.86 158.28 406.635 158.28 419.93C158.28 433.226 169.06 444 182.363 444C195.665 444 206.445 433.226 206.445 419.93C206.445 406.635 195.665 395.86 182.363 395.86Z" fill="white"/>
<path d="M261.637 285.616C274.938 285.616 285.72 274.84 285.72 261.546C285.72 248.253 274.938 237.476 261.637 237.476C248.337 237.476 237.555 248.253 237.555 261.546C237.555 274.84 248.337 285.616 261.637 285.616Z" fill="white"/>
<path d="M340.772 246.77C332.615 246.77 325.988 253.383 325.988 261.546C325.988 269.709 332.605 276.322 340.772 276.322C348.94 276.322 355.556 269.709 355.556 261.546C355.556 253.383 348.94 246.77 340.772 246.77Z" fill="white"/>
<path d="M419.917 270.78C425.02 270.78 429.156 266.646 429.156 261.546C429.156 256.446 425.02 252.312 419.917 252.312C414.815 252.312 410.679 256.446 410.679 261.546C410.679 266.646 414.815 270.78 419.917 270.78Z" fill="white"/>
<path d="M261.637 364.708C274.938 364.708 285.72 353.931 285.72 340.638C285.72 327.345 274.938 316.568 261.637 316.568C248.337 316.568 237.555 327.345 237.555 340.638C237.555 353.931 248.337 364.708 261.637 364.708Z" fill="white"/>
<path d="M340.772 349.872C345.875 349.872 350.011 345.738 350.011 340.638C350.011 335.539 345.875 331.404 340.772 331.404C335.67 331.404 331.534 335.539 331.534 340.638C331.534 345.738 335.67 349.872 340.772 349.872Z" fill="white"/>
<path d="M419.917 349.872C425.02 349.872 429.156 345.738 429.156 340.638C429.156 335.539 425.02 331.404 419.917 331.404C414.815 331.404 410.679 335.539 410.679 340.638C410.679 345.738 414.815 349.872 419.917 349.872Z" fill="white"/>
<path d="M261.637 395.86C248.335 395.86 237.555 406.635 237.555 419.93C237.555 433.226 248.335 444 261.637 444C274.94 444 285.72 433.226 285.72 419.93C285.72 406.635 274.94 395.86 261.637 395.86Z" fill="white"/>
<path d="M340.772 429.164C345.875 429.164 350.011 425.03 350.011 419.93C350.011 414.831 345.875 410.697 340.772 410.697C335.67 410.697 331.534 414.831 331.534 419.93C331.534 425.03 335.67 429.164 340.772 429.164Z" fill="white"/>
<path d="M419.917 429.164C425.02 429.164 429.156 425.03 429.156 419.93C429.156 414.831 425.02 410.697 419.917 410.697C414.815 410.697 410.679 414.831 410.679 419.93C410.679 425.03 414.815 429.164 419.917 429.164Z" fill="white"/>
</svg>
